<mxfile host="Electron" modified="2023-08-18T10:27:51.840Z" agent="Mozilla/5.0 (Macintosh; Intel Mac OS X 10_15_7) AppleWebKit/537.36 (KHTML, like Gecko) draw.io/21.6.5 Chrome/114.0.5735.243 Electron/25.3.1 Safari/537.36" etag="4efv0M89b2o5Cy3ifrZA" version="21.6.5" type="device">
  <diagram name="Page-1" id="NCnUGPJZtkzrUVXgbvUX">
    <mxGraphModel dx="367" dy="259" grid="1" gridSize="10" guides="1" tooltips="1" connect="1" arrows="1" fold="1" page="1" pageScale="1" pageWidth="850" pageHeight="1100" math="0" shadow="0">
      <root>
        <mxCell id="0" />
        <mxCell id="1" parent="0" />
        <mxCell id="DBlbQC8I4gI5r_LHW7N4-24" style="edgeStyle=orthogonalEdgeStyle;rounded=0;orthogonalLoop=1;jettySize=auto;html=1;exitX=0.5;exitY=1;exitDx=0;exitDy=0;entryX=0.5;entryY=0;entryDx=0;entryDy=0;" parent="1" source="DBlbQC8I4gI5r_LHW7N4-1" target="DBlbQC8I4gI5r_LHW7N4-2" edge="1">
          <mxGeometry relative="1" as="geometry" />
        </mxCell>
        <mxCell id="DBlbQC8I4gI5r_LHW7N4-1" value="Program Start" style="rounded=0;whiteSpace=wrap;html=1;" parent="1" vertex="1">
          <mxGeometry x="320" y="200" width="120" height="60" as="geometry" />
        </mxCell>
        <mxCell id="DBlbQC8I4gI5r_LHW7N4-25" style="edgeStyle=orthogonalEdgeStyle;rounded=0;orthogonalLoop=1;jettySize=auto;html=1;exitX=0.5;exitY=1;exitDx=0;exitDy=0;entryX=0.5;entryY=0;entryDx=0;entryDy=0;" parent="1" source="DBlbQC8I4gI5r_LHW7N4-2" target="DBlbQC8I4gI5r_LHW7N4-3" edge="1">
          <mxGeometry relative="1" as="geometry" />
        </mxCell>
        <mxCell id="DBlbQC8I4gI5r_LHW7N4-2" value="初始化MCU&lt;br&gt;初始化REF Model&lt;br&gt;初始化Difftest" style="rounded=0;whiteSpace=wrap;html=1;" parent="1" vertex="1">
          <mxGeometry x="320" y="310" width="120" height="60" as="geometry" />
        </mxCell>
        <mxCell id="DBlbQC8I4gI5r_LHW7N4-15" style="edgeStyle=orthogonalEdgeStyle;rounded=0;orthogonalLoop=1;jettySize=auto;html=1;exitX=0.5;exitY=1;exitDx=0;exitDy=0;entryX=0.5;entryY=0;entryDx=0;entryDy=0;" parent="1" source="DBlbQC8I4gI5r_LHW7N4-3" target="DBlbQC8I4gI5r_LHW7N4-12" edge="1">
          <mxGeometry relative="1" as="geometry" />
        </mxCell>
        <mxCell id="DBlbQC8I4gI5r_LHW7N4-3" value="MCU执行一条指令" style="rounded=0;whiteSpace=wrap;html=1;" parent="1" vertex="1">
          <mxGeometry x="320" y="440" width="120" height="60" as="geometry" />
        </mxCell>
        <mxCell id="DBlbQC8I4gI5r_LHW7N4-37" style="edgeStyle=orthogonalEdgeStyle;rounded=0;orthogonalLoop=1;jettySize=auto;html=1;exitX=0.5;exitY=0;exitDx=0;exitDy=0;entryX=0.5;entryY=1;entryDx=0;entryDy=0;" parent="1" source="DBlbQC8I4gI5r_LHW7N4-5" target="DBlbQC8I4gI5r_LHW7N4-10" edge="1">
          <mxGeometry relative="1" as="geometry" />
        </mxCell>
        <mxCell id="DBlbQC8I4gI5r_LHW7N4-5" value="Reference Model&lt;br&gt;指令一条指令" style="rounded=0;whiteSpace=wrap;html=1;" parent="1" vertex="1">
          <mxGeometry x="490" y="810" width="120" height="60" as="geometry" />
        </mxCell>
        <mxCell id="DBlbQC8I4gI5r_LHW7N4-36" style="edgeStyle=orthogonalEdgeStyle;rounded=0;orthogonalLoop=1;jettySize=auto;html=1;exitX=0.5;exitY=0;exitDx=0;exitDy=0;entryX=0.5;entryY=1;entryDx=0;entryDy=0;" parent="1" source="DBlbQC8I4gI5r_LHW7N4-10" target="DBlbQC8I4gI5r_LHW7N4-18" edge="1">
          <mxGeometry relative="1" as="geometry" />
        </mxCell>
        <mxCell id="DBlbQC8I4gI5r_LHW7N4-10" value="Difftest比较&lt;br&gt;MCU跟REF&lt;br&gt;寄存器" style="rounded=0;whiteSpace=wrap;html=1;" parent="1" vertex="1">
          <mxGeometry x="490" y="690" width="120" height="60" as="geometry" />
        </mxCell>
        <mxCell id="DBlbQC8I4gI5r_LHW7N4-23" style="edgeStyle=orthogonalEdgeStyle;rounded=0;orthogonalLoop=1;jettySize=auto;html=1;exitX=0.5;exitY=1;exitDx=0;exitDy=0;entryX=0.5;entryY=0;entryDx=0;entryDy=0;" parent="1" source="DBlbQC8I4gI5r_LHW7N4-12" target="DBlbQC8I4gI5r_LHW7N4-16" edge="1">
          <mxGeometry relative="1" as="geometry" />
        </mxCell>
        <mxCell id="DBlbQC8I4gI5r_LHW7N4-33" value="否" style="edgeLabel;html=1;align=center;verticalAlign=middle;resizable=0;points=[];" parent="DBlbQC8I4gI5r_LHW7N4-23" vertex="1" connectable="0">
          <mxGeometry x="-0.18" relative="1" as="geometry">
            <mxPoint as="offset" />
          </mxGeometry>
        </mxCell>
        <mxCell id="DBlbQC8I4gI5r_LHW7N4-29" style="edgeStyle=orthogonalEdgeStyle;rounded=0;orthogonalLoop=1;jettySize=auto;html=1;exitX=0;exitY=0.5;exitDx=0;exitDy=0;entryX=1;entryY=0.5;entryDx=0;entryDy=0;" parent="1" source="DBlbQC8I4gI5r_LHW7N4-12" target="DBlbQC8I4gI5r_LHW7N4-26" edge="1">
          <mxGeometry relative="1" as="geometry" />
        </mxCell>
        <mxCell id="DBlbQC8I4gI5r_LHW7N4-32" value="是" style="edgeLabel;html=1;align=center;verticalAlign=middle;resizable=0;points=[];" parent="DBlbQC8I4gI5r_LHW7N4-29" vertex="1" connectable="0">
          <mxGeometry x="-0.0571" y="-1" relative="1" as="geometry">
            <mxPoint as="offset" />
          </mxGeometry>
        </mxCell>
        <mxCell id="DBlbQC8I4gI5r_LHW7N4-12" value="ECALL指令" style="rhombus;whiteSpace=wrap;html=1;" parent="1" vertex="1">
          <mxGeometry x="340" y="550" width="80" height="80" as="geometry" />
        </mxCell>
        <mxCell id="DBlbQC8I4gI5r_LHW7N4-34" style="edgeStyle=orthogonalEdgeStyle;rounded=0;orthogonalLoop=1;jettySize=auto;html=1;exitX=1;exitY=0.5;exitDx=0;exitDy=0;entryX=0;entryY=0.5;entryDx=0;entryDy=0;" parent="1" source="DBlbQC8I4gI5r_LHW7N4-16" target="DBlbQC8I4gI5r_LHW7N4-5" edge="1">
          <mxGeometry relative="1" as="geometry" />
        </mxCell>
        <mxCell id="DBlbQC8I4gI5r_LHW7N4-42" value="是" style="edgeLabel;html=1;align=center;verticalAlign=middle;resizable=0;points=[];" parent="DBlbQC8I4gI5r_LHW7N4-34" vertex="1" connectable="0">
          <mxGeometry x="-0.1143" y="1" relative="1" as="geometry">
            <mxPoint as="offset" />
          </mxGeometry>
        </mxCell>
        <mxCell id="DBlbQC8I4gI5r_LHW7N4-44" style="edgeStyle=orthogonalEdgeStyle;rounded=0;orthogonalLoop=1;jettySize=auto;html=1;exitX=0;exitY=0.5;exitDx=0;exitDy=0;entryX=0;entryY=0.5;entryDx=0;entryDy=0;" parent="1" source="DBlbQC8I4gI5r_LHW7N4-16" target="DBlbQC8I4gI5r_LHW7N4-3" edge="1">
          <mxGeometry relative="1" as="geometry">
            <Array as="points">
              <mxPoint x="160" y="840" />
              <mxPoint x="160" y="470" />
            </Array>
          </mxGeometry>
        </mxCell>
        <mxCell id="DBlbQC8I4gI5r_LHW7N4-16" value="MCU&lt;br&gt;指令提交" style="rhombus;whiteSpace=wrap;html=1;fillColor=#f8cecc;strokeColor=#b85450;" parent="1" vertex="1">
          <mxGeometry x="340" y="800" width="80" height="80" as="geometry" />
        </mxCell>
        <mxCell id="DBlbQC8I4gI5r_LHW7N4-38" style="edgeStyle=orthogonalEdgeStyle;rounded=0;orthogonalLoop=1;jettySize=auto;html=1;exitX=1;exitY=0.5;exitDx=0;exitDy=0;entryX=0;entryY=0.5;entryDx=0;entryDy=0;" parent="1" source="DBlbQC8I4gI5r_LHW7N4-18" target="DBlbQC8I4gI5r_LHW7N4-27" edge="1">
          <mxGeometry relative="1" as="geometry" />
        </mxCell>
        <mxCell id="DBlbQC8I4gI5r_LHW7N4-41" value="否" style="edgeLabel;html=1;align=center;verticalAlign=middle;resizable=0;points=[];" parent="DBlbQC8I4gI5r_LHW7N4-38" vertex="1" connectable="0">
          <mxGeometry x="-0.2" relative="1" as="geometry">
            <mxPoint as="offset" />
          </mxGeometry>
        </mxCell>
        <mxCell id="DBlbQC8I4gI5r_LHW7N4-39" style="edgeStyle=orthogonalEdgeStyle;rounded=0;orthogonalLoop=1;jettySize=auto;html=1;exitX=0.5;exitY=0;exitDx=0;exitDy=0;entryX=1;entryY=0.5;entryDx=0;entryDy=0;" parent="1" source="DBlbQC8I4gI5r_LHW7N4-18" target="DBlbQC8I4gI5r_LHW7N4-3" edge="1">
          <mxGeometry relative="1" as="geometry" />
        </mxCell>
        <mxCell id="DBlbQC8I4gI5r_LHW7N4-40" value="是" style="edgeLabel;html=1;align=center;verticalAlign=middle;resizable=0;points=[];" parent="DBlbQC8I4gI5r_LHW7N4-39" vertex="1" connectable="0">
          <mxGeometry x="-0.6" relative="1" as="geometry">
            <mxPoint as="offset" />
          </mxGeometry>
        </mxCell>
        <mxCell id="DBlbQC8I4gI5r_LHW7N4-18" value="状态一致" style="rhombus;whiteSpace=wrap;html=1;" parent="1" vertex="1">
          <mxGeometry x="510" y="550" width="80" height="80" as="geometry" />
        </mxCell>
        <mxCell id="DBlbQC8I4gI5r_LHW7N4-26" value="测试通过" style="ellipse;whiteSpace=wrap;html=1;aspect=fixed;fillColor=#d5e8d4;strokeColor=#82b366;" parent="1" vertex="1">
          <mxGeometry x="180" y="550" width="80" height="80" as="geometry" />
        </mxCell>
        <mxCell id="DBlbQC8I4gI5r_LHW7N4-27" value="测试失败" style="ellipse;whiteSpace=wrap;html=1;aspect=fixed;fillColor=#d5e8d4;strokeColor=#82b366;" parent="1" vertex="1">
          <mxGeometry x="650" y="550" width="80" height="80" as="geometry" />
        </mxCell>
        <mxCell id="kwIBn3zFhOeV5U-3Jm4Y-1" value="" style="rounded=0;whiteSpace=wrap;html=1;" parent="1" vertex="1">
          <mxGeometry x="80" y="1200" width="160" height="40" as="geometry" />
        </mxCell>
        <mxCell id="kwIBn3zFhOeV5U-3Jm4Y-3" value="" style="rounded=1;whiteSpace=wrap;html=1;fillColor=#e1d5e7;strokeColor=#9673a6;" parent="1" vertex="1">
          <mxGeometry x="80" y="1200" width="40" height="40" as="geometry" />
        </mxCell>
        <mxCell id="kwIBn3zFhOeV5U-3Jm4Y-4" value="" style="rounded=1;whiteSpace=wrap;html=1;fillColor=#f8cecc;strokeColor=#b85450;" parent="1" vertex="1">
          <mxGeometry x="120" y="1200" width="40" height="40" as="geometry" />
        </mxCell>
        <mxCell id="kwIBn3zFhOeV5U-3Jm4Y-5" value="" style="rounded=1;whiteSpace=wrap;html=1;fillColor=#dae8fc;strokeColor=#6c8ebf;" parent="1" vertex="1">
          <mxGeometry x="160" y="1200" width="40" height="40" as="geometry" />
        </mxCell>
        <mxCell id="kwIBn3zFhOeV5U-3Jm4Y-6" value="" style="rounded=1;whiteSpace=wrap;html=1;fillColor=#d5e8d4;strokeColor=#82b366;" parent="1" vertex="1">
          <mxGeometry x="200" y="1200" width="40" height="40" as="geometry" />
        </mxCell>
        <mxCell id="kwIBn3zFhOeV5U-3Jm4Y-7" value="" style="rounded=0;whiteSpace=wrap;html=1;" parent="1" vertex="1">
          <mxGeometry x="280" y="1200" width="160" height="40" as="geometry" />
        </mxCell>
        <mxCell id="kwIBn3zFhOeV5U-3Jm4Y-8" value="" style="rounded=1;whiteSpace=wrap;html=1;" parent="1" vertex="1">
          <mxGeometry x="280" y="1200" width="40" height="40" as="geometry" />
        </mxCell>
        <mxCell id="kwIBn3zFhOeV5U-3Jm4Y-9" value="" style="rounded=1;whiteSpace=wrap;html=1;" parent="1" vertex="1">
          <mxGeometry x="320" y="1200" width="40" height="40" as="geometry" />
        </mxCell>
        <mxCell id="kwIBn3zFhOeV5U-3Jm4Y-10" value="" style="rounded=1;whiteSpace=wrap;html=1;" parent="1" vertex="1">
          <mxGeometry x="360" y="1200" width="40" height="40" as="geometry" />
        </mxCell>
        <mxCell id="kwIBn3zFhOeV5U-3Jm4Y-11" value="" style="rounded=1;whiteSpace=wrap;html=1;" parent="1" vertex="1">
          <mxGeometry x="400" y="1200" width="40" height="40" as="geometry" />
        </mxCell>
        <mxCell id="kwIBn3zFhOeV5U-3Jm4Y-12" value="Init" style="text;html=1;strokeColor=none;fillColor=none;align=center;verticalAlign=middle;whiteSpace=wrap;rounded=0;" parent="1" vertex="1">
          <mxGeometry x="450" y="1205" width="60" height="30" as="geometry" />
        </mxCell>
        <mxCell id="kwIBn3zFhOeV5U-3Jm4Y-13" value="Spike" style="text;html=1;strokeColor=none;fillColor=none;align=center;verticalAlign=middle;whiteSpace=wrap;rounded=0;" parent="1" vertex="1">
          <mxGeometry x="130" y="1160" width="60" height="30" as="geometry" />
        </mxCell>
        <mxCell id="kwIBn3zFhOeV5U-3Jm4Y-14" value="MCU" style="text;html=1;strokeColor=none;fillColor=none;align=center;verticalAlign=middle;whiteSpace=wrap;rounded=0;" parent="1" vertex="1">
          <mxGeometry x="330" y="1160" width="60" height="30" as="geometry" />
        </mxCell>
        <mxCell id="kwIBn3zFhOeV5U-3Jm4Y-15" value="" style="rounded=0;whiteSpace=wrap;html=1;" parent="1" vertex="1">
          <mxGeometry x="80" y="1280" width="160" height="40" as="geometry" />
        </mxCell>
        <mxCell id="kwIBn3zFhOeV5U-3Jm4Y-16" value="" style="rounded=1;whiteSpace=wrap;html=1;fillColor=#e1d5e7;strokeColor=#9673a6;" parent="1" vertex="1">
          <mxGeometry x="80" y="1280" width="40" height="40" as="geometry" />
        </mxCell>
        <mxCell id="kwIBn3zFhOeV5U-3Jm4Y-17" value="" style="rounded=1;whiteSpace=wrap;html=1;fillColor=#f8cecc;strokeColor=#b85450;" parent="1" vertex="1">
          <mxGeometry x="120" y="1280" width="40" height="40" as="geometry" />
        </mxCell>
        <mxCell id="kwIBn3zFhOeV5U-3Jm4Y-18" value="" style="rounded=1;whiteSpace=wrap;html=1;fillColor=#ffe6cc;strokeColor=#d79b00;" parent="1" vertex="1">
          <mxGeometry x="160" y="1280" width="40" height="40" as="geometry" />
        </mxCell>
        <mxCell id="kwIBn3zFhOeV5U-3Jm4Y-19" value="" style="rounded=1;whiteSpace=wrap;html=1;fillColor=#ffe6cc;strokeColor=#d79b00;" parent="1" vertex="1">
          <mxGeometry x="200" y="1280" width="40" height="40" as="geometry" />
        </mxCell>
        <mxCell id="kwIBn3zFhOeV5U-3Jm4Y-20" value="" style="rounded=0;whiteSpace=wrap;html=1;" parent="1" vertex="1">
          <mxGeometry x="280" y="1280" width="160" height="40" as="geometry" />
        </mxCell>
        <mxCell id="kwIBn3zFhOeV5U-3Jm4Y-21" value="" style="rounded=1;whiteSpace=wrap;html=1;" parent="1" vertex="1">
          <mxGeometry x="280" y="1280" width="40" height="40" as="geometry" />
        </mxCell>
        <mxCell id="kwIBn3zFhOeV5U-3Jm4Y-22" value="" style="rounded=1;whiteSpace=wrap;html=1;" parent="1" vertex="1">
          <mxGeometry x="320" y="1280" width="40" height="40" as="geometry" />
        </mxCell>
        <mxCell id="kwIBn3zFhOeV5U-3Jm4Y-23" value="" style="rounded=1;whiteSpace=wrap;html=1;fillColor=#ffe6cc;strokeColor=#d79b00;" parent="1" vertex="1">
          <mxGeometry x="360" y="1280" width="40" height="40" as="geometry" />
        </mxCell>
        <mxCell id="kwIBn3zFhOeV5U-3Jm4Y-24" value="" style="rounded=1;whiteSpace=wrap;html=1;fillColor=#ffe6cc;strokeColor=#d79b00;" parent="1" vertex="1">
          <mxGeometry x="400" y="1280" width="40" height="40" as="geometry" />
        </mxCell>
        <mxCell id="kwIBn3zFhOeV5U-3Jm4Y-25" value="SH" style="text;html=1;strokeColor=none;fillColor=none;align=center;verticalAlign=middle;whiteSpace=wrap;rounded=0;" parent="1" vertex="1">
          <mxGeometry x="450" y="1285" width="60" height="30" as="geometry" />
        </mxCell>
        <mxCell id="kwIBn3zFhOeV5U-3Jm4Y-42" style="edgeStyle=orthogonalEdgeStyle;rounded=0;orthogonalLoop=1;jettySize=auto;html=1;exitX=0.5;exitY=1;exitDx=0;exitDy=0;entryX=0.5;entryY=1;entryDx=0;entryDy=0;" parent="1" source="kwIBn3zFhOeV5U-3Jm4Y-27" target="kwIBn3zFhOeV5U-3Jm4Y-32" edge="1">
          <mxGeometry relative="1" as="geometry" />
        </mxCell>
        <mxCell id="kwIBn3zFhOeV5U-3Jm4Y-43" value="mismatch" style="edgeLabel;html=1;align=center;verticalAlign=middle;resizable=0;points=[];" parent="kwIBn3zFhOeV5U-3Jm4Y-42" vertex="1" connectable="0">
          <mxGeometry x="-0.0917" y="-1" relative="1" as="geometry">
            <mxPoint y="-2" as="offset" />
          </mxGeometry>
        </mxCell>
        <mxCell id="kwIBn3zFhOeV5U-3Jm4Y-27" value="" style="rounded=1;whiteSpace=wrap;html=1;fillColor=#e1d5e7;strokeColor=#9673a6;" parent="1" vertex="1">
          <mxGeometry x="80" y="1360" width="40" height="40" as="geometry" />
        </mxCell>
        <mxCell id="kwIBn3zFhOeV5U-3Jm4Y-44" style="edgeStyle=orthogonalEdgeStyle;rounded=0;orthogonalLoop=1;jettySize=auto;html=1;exitX=0.5;exitY=0;exitDx=0;exitDy=0;entryX=0.5;entryY=0;entryDx=0;entryDy=0;" parent="1" source="kwIBn3zFhOeV5U-3Jm4Y-28" target="kwIBn3zFhOeV5U-3Jm4Y-33" edge="1">
          <mxGeometry relative="1" as="geometry" />
        </mxCell>
        <mxCell id="kwIBn3zFhOeV5U-3Jm4Y-45" value="mismatch" style="edgeLabel;html=1;align=center;verticalAlign=middle;resizable=0;points=[];" parent="kwIBn3zFhOeV5U-3Jm4Y-44" vertex="1" connectable="0">
          <mxGeometry x="-0.0043" y="-1" relative="1" as="geometry">
            <mxPoint y="-1" as="offset" />
          </mxGeometry>
        </mxCell>
        <mxCell id="kwIBn3zFhOeV5U-3Jm4Y-28" value="" style="rounded=1;whiteSpace=wrap;html=1;fillColor=#f8cecc;strokeColor=#b85450;" parent="1" vertex="1">
          <mxGeometry x="120" y="1360" width="40" height="40" as="geometry" />
        </mxCell>
        <mxCell id="kwIBn3zFhOeV5U-3Jm4Y-29" value="" style="rounded=1;whiteSpace=wrap;html=1;fillColor=#ffe6cc;strokeColor=#d79b00;" parent="1" vertex="1">
          <mxGeometry x="160" y="1360" width="40" height="40" as="geometry" />
        </mxCell>
        <mxCell id="kwIBn3zFhOeV5U-3Jm4Y-30" value="" style="rounded=1;whiteSpace=wrap;html=1;fillColor=#ffe6cc;strokeColor=#d79b00;" parent="1" vertex="1">
          <mxGeometry x="200" y="1360" width="40" height="40" as="geometry" />
        </mxCell>
        <mxCell id="kwIBn3zFhOeV5U-3Jm4Y-32" value="" style="rounded=1;whiteSpace=wrap;html=1;" parent="1" vertex="1">
          <mxGeometry x="280" y="1360" width="40" height="40" as="geometry" />
        </mxCell>
        <mxCell id="kwIBn3zFhOeV5U-3Jm4Y-33" value="" style="rounded=1;whiteSpace=wrap;html=1;" parent="1" vertex="1">
          <mxGeometry x="320" y="1360" width="40" height="40" as="geometry" />
        </mxCell>
        <mxCell id="kwIBn3zFhOeV5U-3Jm4Y-34" value="" style="rounded=1;whiteSpace=wrap;html=1;fillColor=#ffe6cc;strokeColor=#d79b00;" parent="1" vertex="1">
          <mxGeometry x="360" y="1360" width="40" height="40" as="geometry" />
        </mxCell>
        <mxCell id="kwIBn3zFhOeV5U-3Jm4Y-35" value="" style="rounded=1;whiteSpace=wrap;html=1;fillColor=#ffe6cc;strokeColor=#d79b00;" parent="1" vertex="1">
          <mxGeometry x="400" y="1360" width="40" height="40" as="geometry" />
        </mxCell>
        <mxCell id="kwIBn3zFhOeV5U-3Jm4Y-36" value="LW" style="text;html=1;strokeColor=none;fillColor=none;align=center;verticalAlign=middle;whiteSpace=wrap;rounded=0;" parent="1" vertex="1">
          <mxGeometry x="450" y="1365" width="60" height="30" as="geometry" />
        </mxCell>
        <mxCell id="KPPVhqbOsaaz8M9D48OL-1" value="取指" style="rounded=1;whiteSpace=wrap;html=1;fillColor=#ffe6cc;strokeColor=#d79b00;" vertex="1" parent="1">
          <mxGeometry x="150" y="1520" width="80" height="40" as="geometry" />
        </mxCell>
        <mxCell id="KPPVhqbOsaaz8M9D48OL-2" value="放入FIFO、&lt;br&gt;计算顺序地址" style="rounded=1;whiteSpace=wrap;html=1;fillColor=#dae8fc;strokeColor=#6c8ebf;" vertex="1" parent="1">
          <mxGeometry x="230" y="1520" width="80" height="40" as="geometry" />
        </mxCell>
        <mxCell id="KPPVhqbOsaaz8M9D48OL-3" value="译码、&lt;br&gt;计算跳转地址" style="rounded=1;whiteSpace=wrap;html=1;fillColor=#d5e8d4;strokeColor=#82b366;" vertex="1" parent="1">
          <mxGeometry x="310" y="1520" width="80" height="40" as="geometry" />
        </mxCell>
        <mxCell id="KPPVhqbOsaaz8M9D48OL-40" value="取指" style="rounded=1;whiteSpace=wrap;html=1;fillColor=#ffe6cc;strokeColor=#d79b00;" vertex="1" parent="1">
          <mxGeometry x="230" y="1560" width="80" height="40" as="geometry" />
        </mxCell>
        <mxCell id="KPPVhqbOsaaz8M9D48OL-41" value="放入FIFO、&lt;br&gt;计算顺序地址" style="rounded=1;whiteSpace=wrap;html=1;fillColor=#dae8fc;strokeColor=#6c8ebf;" vertex="1" parent="1">
          <mxGeometry x="310" y="1560" width="80" height="40" as="geometry" />
        </mxCell>
        <mxCell id="KPPVhqbOsaaz8M9D48OL-42" value="译码、&lt;br&gt;计算跳转地址" style="rounded=1;whiteSpace=wrap;html=1;fillColor=#d5e8d4;strokeColor=#82b366;" vertex="1" parent="1">
          <mxGeometry x="390" y="1560" width="80" height="40" as="geometry" />
        </mxCell>
        <mxCell id="KPPVhqbOsaaz8M9D48OL-43" value="取指" style="rounded=1;whiteSpace=wrap;html=1;fillColor=#ffe6cc;strokeColor=#d79b00;" vertex="1" parent="1">
          <mxGeometry x="310" y="1600" width="80" height="40" as="geometry" />
        </mxCell>
        <mxCell id="KPPVhqbOsaaz8M9D48OL-44" value="放入FIFO、&lt;br&gt;计算顺序地址" style="rounded=1;whiteSpace=wrap;html=1;fillColor=#dae8fc;strokeColor=#6c8ebf;" vertex="1" parent="1">
          <mxGeometry x="390" y="1600" width="80" height="40" as="geometry" />
        </mxCell>
        <mxCell id="KPPVhqbOsaaz8M9D48OL-45" value="译码、&lt;br&gt;计算跳转地址" style="rounded=1;whiteSpace=wrap;html=1;fillColor=#d5e8d4;strokeColor=#82b366;" vertex="1" parent="1">
          <mxGeometry x="470" y="1600" width="80" height="40" as="geometry" />
        </mxCell>
        <mxCell id="KPPVhqbOsaaz8M9D48OL-55" value="A" style="rounded=0;whiteSpace=wrap;html=1;" vertex="1" parent="1">
          <mxGeometry x="160" y="1840" width="120" height="40" as="geometry" />
        </mxCell>
        <mxCell id="KPPVhqbOsaaz8M9D48OL-56" value="B" style="rounded=0;whiteSpace=wrap;html=1;" vertex="1" parent="1">
          <mxGeometry x="160" y="1800" width="120" height="40" as="geometry" />
        </mxCell>
        <mxCell id="KPPVhqbOsaaz8M9D48OL-57" value="C" style="rounded=0;whiteSpace=wrap;html=1;" vertex="1" parent="1">
          <mxGeometry x="160" y="1760" width="120" height="40" as="geometry" />
        </mxCell>
        <mxCell id="KPPVhqbOsaaz8M9D48OL-58" value="D" style="rounded=0;whiteSpace=wrap;html=1;" vertex="1" parent="1">
          <mxGeometry x="160" y="1720" width="120" height="40" as="geometry" />
        </mxCell>
        <mxCell id="KPPVhqbOsaaz8M9D48OL-59" value="0" style="text;html=1;strokeColor=none;fillColor=none;align=center;verticalAlign=middle;whiteSpace=wrap;rounded=0;" vertex="1" parent="1">
          <mxGeometry x="270" y="1845" width="60" height="30" as="geometry" />
        </mxCell>
        <mxCell id="KPPVhqbOsaaz8M9D48OL-60" value="4" style="text;html=1;strokeColor=none;fillColor=none;align=center;verticalAlign=middle;whiteSpace=wrap;rounded=0;" vertex="1" parent="1">
          <mxGeometry x="270" y="1805" width="60" height="30" as="geometry" />
        </mxCell>
        <mxCell id="KPPVhqbOsaaz8M9D48OL-61" value="8" style="text;html=1;strokeColor=none;fillColor=none;align=center;verticalAlign=middle;whiteSpace=wrap;rounded=0;" vertex="1" parent="1">
          <mxGeometry x="270" y="1765" width="60" height="30" as="geometry" />
        </mxCell>
        <mxCell id="KPPVhqbOsaaz8M9D48OL-62" value="c" style="text;html=1;strokeColor=none;fillColor=none;align=center;verticalAlign=middle;whiteSpace=wrap;rounded=0;" vertex="1" parent="1">
          <mxGeometry x="270" y="1725" width="60" height="30" as="geometry" />
        </mxCell>
        <mxCell id="KPPVhqbOsaaz8M9D48OL-63" value="addr" style="text;html=1;strokeColor=none;fillColor=none;align=center;verticalAlign=middle;whiteSpace=wrap;rounded=0;" vertex="1" parent="1">
          <mxGeometry x="270" y="1680" width="60" height="30" as="geometry" />
        </mxCell>
        <mxCell id="KPPVhqbOsaaz8M9D48OL-68" value="取指" style="rounded=1;whiteSpace=wrap;html=1;fillColor=#ffe6cc;strokeColor=#d79b00;" vertex="1" parent="1">
          <mxGeometry x="390" y="1640" width="80" height="40" as="geometry" />
        </mxCell>
        <mxCell id="KPPVhqbOsaaz8M9D48OL-69" value="放入FIFO、&lt;br&gt;计算顺序地址" style="rounded=1;whiteSpace=wrap;html=1;fillColor=#dae8fc;strokeColor=#6c8ebf;" vertex="1" parent="1">
          <mxGeometry x="470" y="1640" width="80" height="40" as="geometry" />
        </mxCell>
        <mxCell id="KPPVhqbOsaaz8M9D48OL-70" value="译码、&lt;br&gt;计算跳转地址" style="rounded=1;whiteSpace=wrap;html=1;fillColor=#d5e8d4;strokeColor=#82b366;" vertex="1" parent="1">
          <mxGeometry x="550" y="1640" width="80" height="40" as="geometry" />
        </mxCell>
        <mxCell id="KPPVhqbOsaaz8M9D48OL-72" value="第一个周期：pc=0&lt;br&gt;第二个周期：按照pc=0完成取指，pc变成4&lt;br&gt;第三个周期：按照pc=4完成取指，" style="text;html=1;strokeColor=none;fillColor=none;align=center;verticalAlign=middle;whiteSpace=wrap;rounded=0;" vertex="1" parent="1">
          <mxGeometry x="360" y="1720" width="270" height="30" as="geometry" />
        </mxCell>
      </root>
    </mxGraphModel>
  </diagram>
</mxfile>
